HIERARCHY
ROOT hip
{
	OFFSET 0.000000 0.000000 0.000000
	CHANNELS 6 Xposition Yposition Zposition Xrotation Zrotation Yrotation 
	JOINT abdomen
	{
		OFFSET 0.000000 3.422050 0.000000
		CHANNELS 3 Xrotation Zrotation Yrotation 
		JOINT chest
		{
			OFFSET 0.000000 8.486693 -0.684411
			CHANNELS 3 Xrotation Zrotation Yrotation 
			JOINT neck
			{
				OFFSET 0.000000 10.266162 -0.273764
				CHANNELS 3 Xrotation Zrotation Yrotation 
				JOINT head
				{
					OFFSET 0.000000 3.148285 0.000000
					CHANNELS 3 Xrotation Zrotation Yrotation 
					End Site
					{
						OFFSET 0.000000 3.148289 0.000000
					}
				}
			}
			JOINT lCollar
			{
				OFFSET 3.422053 6.707223 -0.821293
				CHANNELS 3 Yrotation Zrotation Xrotation 
				JOINT lShldr
				{
					OFFSET 3.285171 0.000000 0.000000
					CHANNELS 3 Zrotation Yrotation Xrotation 
					JOINT lForeArm
					{
						OFFSET 10.129278 0.000000 0.000000
						CHANNELS 3 Yrotation Zrotation Xrotation 
						JOINT lHand
						{
							OFFSET 8.486692 0.000000 0.000000
							CHANNELS 3 Zrotation Yrotation Xrotation 
							End Site
							{
								OFFSET 4.106464 0.000000 0.000000
							}
						}
					}
				}
			}
			JOINT rCollar
			{
				OFFSET -3.558935 6.707223 -0.821293
				CHANNELS 3 Yrotation Zrotation Xrotation 
				JOINT rShldr
				{
					OFFSET -3.148289 0.000000 0.000000
					CHANNELS 3 Zrotation Yrotation Xrotation 
					JOINT rForeArm
					{
						OFFSET -10.266159 0.000000 0.000000
						CHANNELS 3 Yrotation Zrotation Xrotation 
						JOINT rHand
						{
							OFFSET -8.349810 0.000000 0.000000
							CHANNELS 3 Zrotation Yrotation Xrotation 
							End Site
							{
								OFFSET -4.106464 0.000000 0.000000
							}
						}
					}
				}
			}
		}
	}
	JOINT lThigh
	{
		OFFSET 5.338403 -1.642589 1.368821
		CHANNELS 3 Xrotation Zrotation Yrotation 
		JOINT lShin
		{
			OFFSET -2.053232 -20.121670 0.000000
			CHANNELS 3 Xrotation Zrotation Yrotation 
			JOINT lFoot
			{
				OFFSET 0.000000 -19.300380 -1.231939
				CHANNELS 3 Xrotation Yrotation Zrotation 
				End Site
				{
					OFFSET 0.000000 -2.463878 4.653993
				}
			}
		}
	}
	JOINT rThigh
	{
		OFFSET -5.338403 -1.642589 1.368821
		CHANNELS 3 Xrotation Zrotation Yrotation 
		JOINT rShin
		{
			OFFSET 2.053232 -20.121670 0.000000
			CHANNELS 3 Xrotation Zrotation Yrotation 
			JOINT rFoot
			{
				OFFSET 0.000000 -19.300380 -1.231939
				CHANNELS 3 Xrotation Yrotation Zrotation 
				End Site
				{
					OFFSET 0.000000 -2.463878 4.653993
				}
			}
		}
	}
}
MOTION
Frames: 6
Frame Time: 0.033315
0.000000 43.528500 0.000000 0.000000 0.000000 0.000000 0.000000 0.000000 0.000000 0.000000 0.000000 0.000000 0.000000 0.000000 0.000000 0.000000 0.000000 0.000000 0.000000 0.000000 0.000000 0.000000 0.000000 0.000000 0.000000 0.000000 0.000000 0.000000 0.000000 0.000000 0.000000 0.000000 0.000000 0.000000 0.000000 0.000000 0.000000 0.000000 0.000000 0.000000 0.000000 0.000000 0.000000 0.000000 0.000000 0.000000 0.000000 0.000000 0.000000 0.000000 0.000000 0.000000 0.000000 0.000000 0.000000 0.000000 0.000000 0.000000 0.000000 0.000000 
-17.472744 6.495411 17.610912 0.000000 0.000000 180.000000 -0.244124 2.467662 0.115422 0.008348 -3.238397 -21.895687 -14.000949 -15.003624 -29.000902 -0.072050 0.270930 -0.152293 -2.099849 -27.158018 -1.610122 -27.477674 -25.183586 7.428901 -91.545235 -28.135056 -26.372053 -34.000759 0.000000 0.000000 0.411525 8.576622 -0.320188 30.022005 42.650288 -34.290672 16.179785 28.215410 -2.830686 6.996825 0.000000 0.000000 -123.175331 -12.482766 -1.593444 87.682556 0.025075 -4.876927 13.611595 2.328721 5.489282 -83.755264 -6.756190 -53.182072 110.144814 27.974726 12.400018 14.680790 -1.731548 -5.013693 
-17.472744 6.495411 17.610912 0.000000 0.000000 180.000000 -0.244124 2.467662 0.115422 0.008348 -3.238397 -21.895687 -14.000948 -15.003624 -29.000902 -0.105624 0.547378 -0.282801 -2.099849 -27.158018 -1.610122 -27.477676 -25.183588 7.428902 -91.280029 -27.777418 -25.966473 -34.000763 0.000000 0.000000 0.411525 8.576622 -0.320188 30.240635 42.523998 -34.140812 16.553028 28.181406 -3.360630 6.996825 0.000000 0.000000 -123.175331 -12.482766 -1.593444 87.682556 0.025076 -4.876927 13.611597 2.328722 5.489283 -83.755264 -6.756190 -53.182072 110.144814 27.974728 12.400017 14.680792 -1.731548 -5.013694 
-17.472744 6.495411 17.610912 0.000000 0.000000 180.000000 -0.244124 2.467662 0.115422 0.008348 -3.238397 -21.895687 -14.000947 -15.003622 -29.000902 -0.139853 0.823942 -0.413572 -2.099849 -27.158018 -1.610122 -27.477674 -25.183586 7.428901 -91.018021 -27.417418 -25.563276 -34.000759 0.000000 0.000000 0.411525 8.576622 -0.320188 30.458450 42.397274 -33.991875 16.926445 28.144293 -3.891086 6.996825 0.000000 0.000000 -123.175331 -12.482766 -1.593444 87.682556 0.025076 -4.876927 13.611595 2.328721 5.489282 -83.755264 -6.756190 -53.182072 110.144814 27.974726 12.400018 14.680790 -1.731548 -5.013693 
-17.472744 6.495411 17.610912 0.000000 0.000000 180.000000 -0.244124 2.467662 0.115422 0.008348 -3.238397 -21.895687 -14.000950 -15.003624 -29.000904 -0.174741 1.100619 -0.544608 -2.099849 -27.158018 -1.610122 -27.477674 -25.183586 7.428901 -90.759201 -27.055069 -25.162443 -34.000759 0.000000 0.000000 0.411525 8.576622 -0.320188 30.675432 42.270069 -33.843834 17.299980 28.104065 -4.421999 6.996825 0.000000 0.000000 -123.175331 -12.482766 -1.593443 87.682556 0.025075 -4.876927 13.611596 2.328722 5.489282 -83.755264 -6.756190 -53.182072 110.144814 27.974726 12.400018 14.680790 -1.731548 -5.013693 
-17.472744 6.495411 17.610912 0.000000 0.000000 180.000000 -0.244124 2.467662 0.115422 0.008348 -3.238396 -21.895685 -14.000949 -15.003624 -29.000902 -0.210290 1.377401 -0.675915 -2.099849 -27.158018 -1.610122 -27.477673 -25.183584 7.428901 -90.503586 -26.690430 -24.763977 -34.000759 0.000000 0.000000 0.411525 8.576622 -0.320188 30.891615 42.142433 -33.696701 17.673571 28.060701 -4.953312 6.996825 0.000000 0.000000 -123.175331 -12.482766 -1.593444 87.682549 0.025075 -4.876927 13.611595 2.328721 5.489282 -83.755264 -6.756190 -53.182072 110.144798 27.974724 12.400014 14.680790 -1.731548 -5.013693 
